<?xml version="1.0" encoding="utf-8"?>
<!-- Generator: Adobe Illustrator 27.3.1, SVG Export Plug-In . SVG Version: 6.00 Build 0)  -->
<svg version="1.1" id="Layer_1" xmlns="http://www.w3.org/2000/svg" xmlns:xlink="http://www.w3.org/1999/xlink" x="0px" y="0px"
	 viewBox="0 0 58.87 21.36" style="enable-background:new 0 0 58.87 21.36;" xml:space="preserve">
<style type="text/css">
	.st0{fill:#267BBB;}
</style>
<g>
	<path class="st0" d="M12.02,4.59c-0.74,0-1.46,0.06-2.16,0.19c-0.7,0.13-1.4,0.3-2.09,0.5c-0.69,0.2-1.39,0.45-2.1,0.73
		C4.97,6.3,4.23,6.59,3.48,6.89C3.42,6.93,3.33,6.97,3.19,7.01C3.05,7.06,2.91,7.1,2.77,7.12C2.64,7.15,2.51,7.14,2.4,7.1
		C2.29,7.05,2.23,6.94,2.23,6.78c0-0.17,0.05-0.33,0.15-0.5c0.1-0.17,0.2-0.29,0.29-0.39C3.21,5.19,3.85,4.6,4.6,4.12
		c0.75-0.48,1.54-0.86,2.39-1.15C7.84,2.69,8.71,2.48,9.6,2.35c0.89-0.13,1.76-0.19,2.59-0.19c1.46,0,2.9,0.2,4.34,0.59
		c1.44,0.4,2.73,0.97,3.89,1.73c1.15,0.76,2.09,1.68,2.81,2.78c0.72,1.1,1.08,2.34,1.08,3.72c0,1-0.18,1.9-0.55,2.71
		c-0.37,0.81-0.86,1.54-1.48,2.18c-0.62,0.65-1.34,1.2-2.16,1.66c-0.82,0.46-1.68,0.85-2.59,1.16c-0.9,0.31-1.83,0.54-2.77,0.69
		c-0.94,0.15-1.83,0.22-2.68,0.22c-1.7,0-3.36-0.2-5.01-0.59c-1.64-0.4-3.18-0.99-4.62-1.78h0.03C2.34,17.16,2.17,17.07,2,16.95
		c-0.18-0.11-0.34-0.23-0.5-0.35c-0.16-0.12-0.29-0.24-0.39-0.35c-0.1-0.11-0.15-0.21-0.15-0.3c0-0.09,0.06-0.14,0.17-0.14
		c0.11,0,0.24,0.02,0.39,0.06c0.15,0.04,0.29,0.09,0.44,0.15c0.15,0.06,0.26,0.11,0.33,0.12c1.44,0.46,2.87,0.82,4.3,1.08
		c1.43,0.26,2.93,0.4,4.49,0.41c0.59,0,1.28-0.05,2.06-0.14c0.78-0.09,1.58-0.24,2.39-0.46c0.81-0.21,1.61-0.49,2.39-0.83
		c0.78-0.34,1.48-0.76,2.1-1.27c0.62-0.51,1.12-1.1,1.49-1.77c0.38-0.67,0.57-1.44,0.57-2.31c0-0.81-0.18-1.53-0.54-2.17
		c-0.36-0.64-0.83-1.18-1.41-1.65c-0.58-0.46-1.24-0.85-1.96-1.16c-0.73-0.31-1.47-0.57-2.21-0.76c-0.75-0.19-1.47-0.33-2.16-0.41
		C13.12,4.64,12.52,4.59,12.02,4.59z M10.14,12.56c0-0.41,0-0.91,0-1.51c0-0.6,0.01-1.22,0.04-1.87c0.03-0.65,0.07-1.27,0.14-1.88
		c0.06-0.61,0.15-1.13,0.26-1.58c0.09-0.18,0.26-0.26,0.5-0.22c0.24,0.04,0.48,0.14,0.72,0.3c0.24,0.17,0.45,0.36,0.64,0.57
		c0.18,0.21,0.28,0.38,0.28,0.51c0,0.53-0.04,1.1-0.11,1.69c-0.07,0.59-0.11,1.12-0.11,1.58c-0.04,0.5-0.06,1.01-0.07,1.53
		c-0.01,0.53-0.04,1.05-0.08,1.58c-0.05,0.53-0.12,1.04-0.24,1.53c-0.11,0.5-0.29,0.96-0.53,1.38c-0.04,0.07-0.09,0.17-0.15,0.28
		c-0.06,0.11-0.14,0.22-0.22,0.32c-0.08,0.1-0.17,0.19-0.26,0.26c-0.09,0.07-0.18,0.11-0.25,0.11c-0.15,0-0.26-0.15-0.35-0.46
		c-0.08-0.3-0.14-0.69-0.17-1.15c-0.03-0.46-0.04-0.96-0.04-1.49C10.14,13.52,10.14,13.02,10.14,12.56z"/>
	<path class="st0" d="M30.33,13.55c-0.15,0.2-0.33,0.37-0.55,0.5c-0.22,0.13-0.46,0.23-0.72,0.32c-0.26,0.08-0.52,0.14-0.79,0.18
		c-0.27,0.04-0.5,0.06-0.71,0.08c-0.06,0.39-0.09,0.77-0.1,1.13c-0.01,0.37,0.01,0.7,0.06,1c0.05,0.3,0.12,0.54,0.22,0.75
		c0.1,0.2,0.24,0.33,0.43,0.39c0.24,0.07,0.5,0.03,0.77-0.12c0.28-0.16,0.54-0.37,0.8-0.65c0.26-0.28,0.51-0.6,0.75-0.97
		c0.24-0.37,0.45-0.72,0.64-1.06c0.18-0.34,0.34-0.65,0.47-0.94c0.13-0.29,0.21-0.49,0.25-0.62c0.06-0.17,0.14-0.28,0.26-0.33
		c0.12-0.06,0.24-0.07,0.35-0.06c0.11,0.02,0.2,0.08,0.28,0.18c0.07,0.1,0.09,0.24,0.06,0.4c-0.04,0.11-0.1,0.33-0.19,0.65
		c-0.09,0.32-0.23,0.69-0.4,1.09c-0.18,0.41-0.39,0.83-0.64,1.26c-0.25,0.43-0.55,0.83-0.9,1.19c-0.35,0.36-0.75,0.66-1.2,0.9
		c-0.45,0.24-0.95,0.36-1.51,0.36c-0.66,0-1.18-0.23-1.55-0.69c-0.37-0.46-0.62-1.04-0.75-1.74c-0.13-0.7-0.15-1.45-0.07-2.25
		c0.08-0.8,0.25-1.55,0.5-2.25c0.25-0.7,0.56-1.28,0.94-1.74c0.38-0.46,0.8-0.69,1.26-0.69c0.44,0,0.83,0.15,1.18,0.46
		c0.34,0.3,0.6,0.66,0.79,1.06c0.18,0.41,0.29,0.82,0.32,1.24C30.59,12.98,30.51,13.31,30.33,13.55z M28.62,11.09
		c-0.13,0.06-0.27,0.29-0.41,0.71c-0.15,0.41-0.29,0.92-0.41,1.51c0.2,0,0.41-0.02,0.61-0.07c0.2-0.05,0.35-0.14,0.44-0.29
		c0.07-0.11,0.12-0.27,0.14-0.48c0.02-0.21,0.01-0.43-0.01-0.65c-0.03-0.22-0.07-0.41-0.14-0.55
		C28.76,11.11,28.69,11.06,28.62,11.09z"/>
	<path class="st0" d="M32.32,6.83c0-0.44,0.12-0.75,0.36-0.93c0.24-0.18,0.5-0.25,0.79-0.24c0.29,0.02,0.53,0.12,0.75,0.3
		c0.21,0.18,0.29,0.42,0.24,0.72c-0.04,0.22-0.1,0.65-0.18,1.3c-0.08,0.65-0.16,1.39-0.24,2.23c-0.07,0.84-0.14,1.71-0.19,2.61
		c-0.06,0.9-0.09,1.74-0.1,2.5c-0.01,0.77,0.02,1.39,0.08,1.88c0.06,0.49,0.19,0.73,0.37,0.73c0.11,0,0.26-0.2,0.46-0.61
		c0.19-0.41,0.39-0.87,0.58-1.38c0.19-0.52,0.37-1.02,0.54-1.51c0.17-0.49,0.28-0.81,0.33-0.95c0.04-0.17,0.12-0.28,0.25-0.33
		c0.13-0.06,0.25-0.07,0.37-0.04c0.12,0.03,0.22,0.09,0.3,0.19c0.08,0.1,0.1,0.24,0.04,0.4c-0.11,0.37-0.26,0.89-0.44,1.55
		c-0.18,0.66-0.41,1.32-0.69,1.96c-0.28,0.65-0.61,1.21-1,1.69c-0.39,0.48-0.85,0.72-1.38,0.72c-0.5,0-0.87-0.26-1.12-0.79
		c-0.25-0.53-0.42-1.19-0.51-2c-0.09-0.81-0.12-1.71-0.1-2.71c0.03-1,0.08-1.97,0.15-2.92c0.07-0.95,0.15-1.82,0.22-2.6
		C32.28,7.83,32.32,7.24,32.32,6.83z"/>
	<path class="st0" d="M36.19,11.95c0-0.31,0.11-0.55,0.35-0.71c0.23-0.16,0.48-0.25,0.76-0.28c0.28-0.03,0.53,0.01,0.75,0.11
		c0.22,0.1,0.32,0.25,0.3,0.46c-0.04,0.59-0.09,1.21-0.17,1.85c-0.07,0.65-0.15,1.24-0.22,1.8c-0.07,0.55-0.12,1.02-0.14,1.4
		c-0.02,0.38,0.03,0.59,0.14,0.62c0.09,0.04,0.19-0.03,0.3-0.21c0.11-0.18,0.22-0.41,0.33-0.71c0.11-0.29,0.23-0.63,0.35-1
		c0.12-0.37,0.24-0.74,0.35-1.11c0.11-0.37,0.21-0.72,0.3-1.05c0.09-0.33,0.17-0.6,0.25-0.8c0.02-0.28,0.14-0.45,0.37-0.51
		c0.23-0.06,0.47-0.06,0.73,0.01c0.26,0.07,0.48,0.18,0.68,0.33c0.19,0.15,0.28,0.3,0.26,0.47c-0.07,0.33-0.14,0.75-0.21,1.24
		c-0.06,0.5-0.11,0.98-0.12,1.44c-0.02,0.46,0,0.86,0.04,1.19c0.05,0.33,0.15,0.5,0.32,0.5c0.11,0,0.24-0.14,0.4-0.43
		c0.16-0.29,0.31-0.62,0.46-1.01c0.15-0.39,0.29-0.77,0.41-1.16c0.13-0.39,0.21-0.68,0.25-0.89c0.04-0.18,0.12-0.31,0.25-0.37
		c0.13-0.06,0.26-0.08,0.39-0.06c0.13,0.03,0.23,0.1,0.32,0.21c0.08,0.11,0.1,0.25,0.04,0.41c-0.04,0.15-0.12,0.42-0.24,0.83
		c-0.12,0.41-0.28,0.85-0.47,1.33c-0.19,0.48-0.42,0.94-0.69,1.38c-0.27,0.44-0.57,0.77-0.9,0.97c-0.2,0.13-0.43,0.18-0.68,0.17
		c-0.25-0.02-0.49-0.09-0.72-0.21c-0.23-0.12-0.43-0.29-0.61-0.53c-0.18-0.23-0.29-0.5-0.35-0.82c-0.06-0.28-0.08-0.59-0.08-0.94
		c-0.17,0.52-0.36,1-0.58,1.47c-0.22,0.46-0.48,0.84-0.77,1.13c-0.18,0.2-0.4,0.32-0.65,0.35c-0.25,0.03-0.49-0.01-0.72-0.12
		c-0.23-0.11-0.43-0.27-0.61-0.48c-0.18-0.21-0.29-0.46-0.35-0.73c-0.06-0.28-0.08-0.63-0.08-1.05c0-0.42,0.01-0.88,0.04-1.38
		c0.03-0.5,0.06-1.01,0.11-1.55C36.14,12.99,36.17,12.47,36.19,11.95z"/>
	<path class="st0" d="M47.97,11.04c0.15-0.24,0.36-0.39,0.64-0.44c0.28-0.06,0.54-0.06,0.79-0.01c0.25,0.05,0.44,0.13,0.58,0.26
		c0.14,0.13,0.14,0.26,0.01,0.39c-0.15,0.17-0.44,0.56-0.88,1.19c-0.44,0.63-0.95,1.35-1.52,2.16c0.24,0.63,0.5,1.17,0.79,1.62
		c0.29,0.45,0.59,0.68,0.9,0.68c0.11,0,0.25-0.14,0.41-0.41c0.17-0.28,0.33-0.6,0.48-0.97c0.16-0.37,0.3-0.74,0.43-1.11
		c0.13-0.37,0.22-0.65,0.28-0.86c0.04-0.18,0.12-0.31,0.25-0.37c0.13-0.06,0.26-0.08,0.39-0.06c0.13,0.03,0.24,0.1,0.32,0.21
		c0.08,0.11,0.1,0.25,0.04,0.41c-0.04,0.11-0.09,0.3-0.17,0.57c-0.07,0.27-0.17,0.58-0.29,0.93c-0.12,0.35-0.26,0.71-0.43,1.08
		c-0.17,0.37-0.35,0.71-0.55,1.02c-0.2,0.31-0.42,0.57-0.66,0.77c-0.24,0.2-0.51,0.3-0.8,0.3c-0.5,0-0.98-0.18-1.44-0.55
		c-0.46-0.37-0.88-0.84-1.27-1.41c-0.28,0.41-0.55,0.79-0.82,1.16c-0.27,0.37-0.53,0.71-0.79,1.02c-0.17,0.2-0.34,0.31-0.51,0.33
		c-0.18,0.02-0.32-0.02-0.43-0.11c-0.11-0.09-0.18-0.23-0.19-0.41c-0.02-0.18,0.06-0.39,0.22-0.61c0.59-0.79,1.19-1.68,1.8-2.65
		c-0.39-0.77-0.68-1.55-0.88-2.32c-0.06,0.15-0.11,0.31-0.17,0.5c-0.06,0.18-0.11,0.37-0.17,0.55c-0.06,0.15-0.15,0.25-0.28,0.32
		c-0.13,0.06-0.25,0.08-0.37,0.06c-0.12-0.03-0.22-0.09-0.29-0.19c-0.07-0.1-0.07-0.24,0-0.4c0.06-0.15,0.14-0.39,0.25-0.72
		c0.11-0.33,0.22-0.66,0.33-1c0.13-0.39,0.27-0.81,0.41-1.27v0.03c0.07-0.22,0.24-0.37,0.5-0.44c0.26-0.07,0.53-0.09,0.82-0.06
		c0.29,0.04,0.54,0.12,0.76,0.26c0.22,0.14,0.33,0.32,0.33,0.54c-0.02,0.18,0,0.42,0.04,0.71c0.05,0.29,0.11,0.6,0.18,0.95
		c0.2-0.37,0.39-0.69,0.55-0.97C47.72,11.42,47.86,11.2,47.97,11.04z"/>
	<path class="st0" d="M55.46,13.55c-0.15,0.2-0.33,0.37-0.55,0.5c-0.22,0.13-0.46,0.23-0.72,0.32c-0.26,0.08-0.52,0.14-0.79,0.18
		c-0.27,0.04-0.5,0.06-0.71,0.08c-0.06,0.39-0.09,0.77-0.1,1.13c-0.01,0.37,0.01,0.7,0.06,1c0.05,0.3,0.12,0.54,0.22,0.75
		c0.1,0.2,0.24,0.33,0.43,0.39c0.24,0.07,0.5,0.03,0.77-0.12c0.28-0.16,0.54-0.37,0.8-0.65c0.26-0.28,0.51-0.6,0.75-0.97
		c0.24-0.37,0.45-0.72,0.64-1.06c0.18-0.34,0.34-0.65,0.47-0.94c0.13-0.29,0.21-0.49,0.25-0.62c0.06-0.17,0.14-0.28,0.26-0.33
		c0.12-0.06,0.23-0.07,0.35-0.06c0.11,0.02,0.2,0.08,0.28,0.18c0.07,0.1,0.09,0.24,0.06,0.4c-0.04,0.11-0.1,0.33-0.19,0.65
		c-0.09,0.32-0.23,0.69-0.4,1.09c-0.18,0.41-0.39,0.83-0.64,1.26c-0.25,0.43-0.55,0.83-0.9,1.19c-0.35,0.36-0.75,0.66-1.2,0.9
		c-0.45,0.24-0.95,0.36-1.51,0.36c-0.66,0-1.18-0.23-1.55-0.69c-0.37-0.46-0.62-1.04-0.75-1.74c-0.13-0.7-0.15-1.45-0.07-2.25
		c0.08-0.8,0.25-1.55,0.5-2.25c0.25-0.7,0.56-1.28,0.94-1.74c0.38-0.46,0.8-0.69,1.26-0.69c0.44,0,0.83,0.15,1.18,0.46
		c0.34,0.3,0.6,0.66,0.79,1.06c0.18,0.41,0.29,0.82,0.32,1.24C55.73,12.98,55.65,13.31,55.46,13.55z M53.75,11.09
		c-0.13,0.06-0.27,0.29-0.41,0.71c-0.15,0.41-0.29,0.92-0.41,1.51c0.2,0,0.41-0.02,0.61-0.07c0.2-0.05,0.35-0.14,0.44-0.29
		c0.07-0.11,0.12-0.27,0.14-0.48c0.02-0.21,0.01-0.43-0.01-0.65c-0.03-0.22-0.07-0.41-0.14-0.55
		C53.89,11.11,53.82,11.06,53.75,11.09z"/>
</g>
</svg>
